HIERARCHY
ROOT Hips
{
	OFFSET	0.00	0.00	0.00
	CHANNELS 6 Xposition Yposition Zposition Zrotation Xrotation Yrotation
	JOINT LeftUpLeg
	{
		OFFSET	 0.126116	-0.065224	 0.014019
		CHANNELS 3 Zrotation Xrotation Yrotation
		JOINT LeftLeg
		{
			OFFSET	 0.000000	 0.569914	 0.000000
			CHANNELS 3 Zrotation Xrotation Yrotation
			JOINT LeftFoot
			{
				OFFSET	 0.000000	 0.544423	 0.000000
				CHANNELS 3 Zrotation Xrotation Yrotation
				JOINT LeftToeBase
				{
					OFFSET	 0.000000	 0.207117	 0.000000
					CHANNELS 3 Zrotation Xrotation Yrotation
					End Site
					{
						OFFSET	 0.000000	 0.207117	 0.000000
					}
				}
			}
		}
	}
	JOINT RightUpLeg
	{
		OFFSET	-0.124023	-0.065224	 0.008373
		CHANNELS 3 Zrotation Xrotation Yrotation
		JOINT RightLeg
		{
			OFFSET	 0.000000	 0.570047	 0.000000
			CHANNELS 3 Zrotation Xrotation Yrotation
			JOINT RightFoot
			{
				OFFSET	 0.000000	 0.544354	 0.000000
				CHANNELS 3 Zrotation Xrotation Yrotation
				JOINT RightToeBase
				{
					OFFSET	 0.000000	 0.207540	 0.000000
					CHANNELS 3 Zrotation Xrotation Yrotation
					End Site
					{
						OFFSET	 0.000000	 0.207540	 0.000000
					}
				}
			}
		}
	}
	JOINT Spine
	{
		OFFSET	 0.000184	 0.117403	 0.007763
		CHANNELS 3 Zrotation Xrotation Yrotation
		JOINT Spine1
		{
			OFFSET	 0.000000	 0.137269	 0.000000
			CHANNELS 3 Zrotation Xrotation Yrotation
			JOINT Spine2
			{
				OFFSET	 0.000000	 0.156879	 0.000000
				CHANNELS 3 Zrotation Xrotation Yrotation
				JOINT LeftShoulder
				{
					OFFSET	 0.080501	 0.160143	 0.002496
					CHANNELS 3 Zrotation Xrotation Yrotation
					JOINT LeftArm
					{
						OFFSET	 0.000000	 0.164363	 0.000000
						CHANNELS 3 Zrotation Xrotation Yrotation
						JOINT LeftForeArm
						{
							OFFSET	 0.000000	 0.364576	 0.000000
							CHANNELS 3 Zrotation Xrotation Yrotation
							JOINT LeftHand
							{
								OFFSET	 0.000000	 0.360812	 0.000000
								CHANNELS 3 Zrotation Xrotation Yrotation
								JOINT LeftHandIndex1
								{
									OFFSET	 0.000000	 0.086006	 0.000000
									CHANNELS 3 Zrotation Xrotation Yrotation
									JOINT LeftHandIndex2
									{
										OFFSET	 0.000000	 0.047237	 0.000000
										CHANNELS 3 Zrotation Xrotation Yrotation
										JOINT LeftHandIndex3
										{
											OFFSET	-0.004284	 0.038165	 0.000551
											CHANNELS 3 Zrotation Xrotation Yrotation
											End Site
											{
												OFFSET	-0.004284	 0.038165	 0.000551
											}
										}
									}
								}
							}
						}
					}
				}
				JOINT Neck
				{
					OFFSET	 0.000000	 0.176489	 0.000000
					CHANNELS 3 Zrotation Xrotation Yrotation
					JOINT Head
					{
						OFFSET	 0.000000	 0.077941	 0.001747
						CHANNELS 3 Zrotation Xrotation Yrotation
						End Site
						{
							OFFSET	 0.000000	 0.077941	 0.001747
						}
					}
				}
				JOINT RightShoulder
				{
					OFFSET	-0.080363	 0.159706	-0.000306
					CHANNELS 3 Zrotation Xrotation Yrotation
					JOINT RightArm
					{
						OFFSET	 0.000000	 0.164196	 0.000000
						CHANNELS 3 Zrotation Xrotation Yrotation
						JOINT RightForeArm
						{
							OFFSET	 0.000000	 0.365611	 0.000000
							CHANNELS 3 Zrotation Xrotation Yrotation
							JOINT RightHand
							{
								OFFSET	 0.000000	 0.360648	 0.000000
								CHANNELS 3 Zrotation Xrotation Yrotation
								JOINT RightHandIndex1
								{
									OFFSET	 0.000000	 0.069977	 0.000000
									CHANNELS 3 Zrotation Xrotation Yrotation
									JOINT RightHandIndex2
									{
										OFFSET	 0.000000	 0.052305	 0.000000
										CHANNELS 3 Zrotation Xrotation Yrotation
										JOINT RightHandIndex3
										{
											OFFSET	 0.009002	 0.042196	 0.000782
											CHANNELS 3 Zrotation Xrotation Yrotation
											End Site
											{
												OFFSET	 0.009002	 0.042196	 0.000782
											}
										}
									}
								}
							}
						}
					}
				}
			}
		}
	}
}
MOTION
Frames:    4
Frame Time: 0.03333334
-0.003872	 1.233649	 0.011389	 1.011745	 0.356122	 172.350800	-161.206600	 12.182710	-27.609620	 5.037262	-18.252820	 2.940495	-11.417820	 61.992320	 3.683608	 1.162021	 26.689190	-2.659656	 172.574100	 10.974920	 19.209890	-2.598557	-30.896860	 7.773904	 13.529740	 77.818790	-9.621680	-1.288989	 28.372430	 2.710516	 2.562645	 6.811601	 10.652200	-5.900602	 2.407829	 5.277952	 8.551504	-1.535163	-13.037940	-113.195400	 6.483902	 92.935020	 44.695010	 28.282250	-8.833391	 4.220454	-0.218197	-0.075832	 11.032560	 29.930790	 29.127110	 0.561178	 8.652261	-0.355721	-5.949625	 13.577840	 1.517980	 4.985970	-3.513325	-0.334722	 3.185830	-6.825668	 0.871011	-1.201620	-5.872532	-0.060733	 123.459200	 10.373560	-96.383460	-8.160765	 36.913350	-0.825680	-5.118996	-0.201218	 0.049577	 6.198011	 1.821648	 8.863471	-2.307748	 4.845225	 0.896267	 12.530440	 22.792520	-5.133874	-8.499888	 13.014950	-0.519991
-0.004208	 1.233371	 0.012081	 0.911869	 0.185239	 171.426300	-160.756600	 12.113130	-30.468930	 5.115028	-18.514820	 2.591009	-11.436000	 61.855660	 4.270947	 1.161215	 26.678280	-2.659337	 172.061200	 11.348460	 20.662140	-2.611469	-31.135270	 7.391651	 11.208920	 77.734940	-7.477508	-1.288217	 28.362270	 2.710189	 3.013279	 6.679077	 8.612943	-6.188902	 2.265569	 5.370759	 8.718920	-1.587593	-12.828720	-112.843900	 6.533373	 92.971920	 44.605600	 28.341280	-8.519012	 5.274263	-0.219267	-1.288762	 11.862420	 29.962590	 27.814150	 0.834072	 7.805122	-0.352722	-5.946169	 13.768120	 1.538384	 4.999730	-3.210907	-0.327448	 3.175856	-6.833094	 0.928463	-1.202899	-6.034554	 0.382870	 123.223500	 10.411920	-96.358760	-7.897068	 36.630540	-0.651469	-6.164865	-0.201572	 1.262971	 5.851800	 1.330625	 10.426840	-2.406454	 5.154372	 0.892501	 12.590620	 23.608140	-5.331583	-8.505603	 13.682550	-0.562151
-0.004606	 1.233072	 0.013099	 0.788113	-0.025878	 170.248800	-160.335600	 12.026570	-33.105980	 5.201614	-18.805580	 2.143517	-11.860530	 61.848100	 5.165546	 1.160191	 26.664420	-2.658930	 171.704500	 11.887970	 21.470190	-2.626031	-31.412160	 6.907099	 8.405382	 77.623710	-4.863068	-1.287238	 28.349390	 2.709775	 3.585613	 6.480019	 5.931180	-6.358226	 2.128473	 5.394118	 8.840885	-1.664608	-12.567740	-112.397600	 6.596511	 93.018350	 44.693830	 28.471110	-8.265125	 6.611678	-0.220530	-2.827612	 12.749020	 29.860680	 25.993250	 1.180232	 6.728489	-0.343056	-5.941877	 14.009720	 1.564299	 5.017140	-2.826897	-0.318318	 3.163203	-6.842538	 1.001405	-1.202752	-6.240696	 0.946715	 122.924100	 10.460490	-96.327170	-7.743838	 36.384050	-0.336444	-7.492929	-0.201935	 2.802181	 5.508756	 0.502302	 12.233660	-2.531836	 5.546937	 0.888487	 12.672120	 24.644310	-5.586017	-8.512156	 14.530660	-0.615788
-0.005211	 1.232743	 0.014911	 0.603656	-0.346829	 168.406300	-159.764500	 11.856780	-36.629460	 5.312479	-19.176270	 1.439046	-12.752470	 61.915210	 6.642212	 1.158598	 26.642850	-2.658298	 171.375800	 12.757700	 22.119200	-2.643515	-31.774760	 6.154873	 4.087655	 77.376440	-0.875534	-1.285713	 28.329330	 2.709130	 4.471666	 6.099930	 1.607098	-6.259253	 2.021026	 5.260541	 8.862394	-1.816537	-12.170810	-111.702300	 6.695568	 93.089680	 44.987760	 28.611570	-7.969092	 8.689714	-0.222268	-5.218039	 14.043460	 29.580290	 22.744580	 1.719019	 5.049961	-0.314994	-5.935409	 14.386000	 1.604677	 5.044125	-2.228770	-0.304336	 3.143520	-6.857278	 1.115000	-1.198541	-6.562560	 1.826011	 122.457700	 10.535800	-96.277460	-7.737742	 35.950890	 0.296514	-9.552382	-0.202164	 5.193390	 5.018528	-0.902480	 14.679020	-2.727250	 6.158410	 0.883950	 12.810840	 26.259020	-5.990368	-8.520773	 15.852360	-0.699610
